# xmcd CD database file
#
# Track frame offsets:
#	150
#	10392
#	22007
#	32620
#	46632
#	61822
#	75762
#	89967
#	104227
#	115120
#	132527
#	152897
#	164490
#	175202
#	188430
#	200140
#	213685
#	226315
#	243360
#	257240
#	268785
#	281330
#	294410
#	305747
#	323547
#
# Disc length: 4427 seconds
#
# Revision: 0
# Processed by: cddbd v1.5.1PL2 Copyright (c) Steve Scherf et al.
# Submitted via: CDex 1.51
#
DISCID=69114919
DTITLE=50 Years of Hits - 50 Years of Hits Vol 1
DYEAR=1900
DGENRE=Country
TTITLE0=Abilene - George Hamilton IV
TTITLE1=Adios Amigo - Jim Reeves
TTITLE2=Ain't Had No Lovin' - Connie Smith
TTITLE3=All I Have To Offer You Is Me - Charley Pride
TTITLE4=All My Ex's Live In Texas - George Strait
TTITLE5=Almost - George Morgan
TTITLE6=Am I Blue (Yes I'm Blue) - George Strait
TTITLE7=Am I That Easy  To Forget - Engelbert Humperdinck
TTITLE8=Am I That Easy To Forget - Jim Reeves
TTITLE9=An American Trilogy - Mickey Newbury
TTITLE10=An American Trilogy - Elvis Presley
TTITLE11=Are You Teasing Me - Carl Smith
TTITLE12=Ashes Of Love - Johnnie and Jack
TTITLE13=Auctioneer - Leroy Van Dyke
TTITLE14=Baby, We're Really In Love - Hank Williams
TTITLE15=Bad News - Johnny Cash
TTITLE16=Baptism Of Jesses Taylor - Johnny Russell
TTITLE17=Beneath Still Waters - Emmylou Harris
TTITLE18=Big Bad John - Jimmy Dean
TTITLE19=Big Big Love - k d Lang
TTITLE20=Big Midnight Special - Wilma Lee and Stoney Cooper
TTITLE21=Blue Angel - Roy Orbison
TTITLE22=Blue Bayou - Roy Orbison
TTITLE23=Blue Bayou - linda Ronstdat
TTITLE24=Blue Blue Day - Don Gibson
EXTD=
EXTT0=
EXTT1=
EXTT2=
EXTT3=
EXTT4=
EXTT5=
EXTT6=
EXTT7=
EXTT8=
EXTT9=
EXTT10=
EXTT11=
EXTT12=
EXTT13=
EXTT14=
EXTT15=
EXTT16=
EXTT17=
EXTT18=
EXTT19=
EXTT20=
EXTT21=
EXTT22=
EXTT23=
EXTT24=
PLAYORDER=
